<?xml version="1.0" standalone="no"?>
<!DOCTYPE svg PUBLIC "-//W3C//DTD SVG 20010904//EN"
 "http://www.w3.org/TR/2001/REC-SVG-20010904/DTD/svg10.dtd">
<svg version="1.0" xmlns="http://www.w3.org/2000/svg"
 width="497.000000pt" height="497.000000pt" viewBox="0 0 497.000000 497.000000"
 preserveAspectRatio="xMidYMid meet">
<metadata>
Created by potrace 1.11, written by Peter Selinger 2001-2013
</metadata>
<g transform="translate(0.000000,497.000000) scale(0.100000,-0.100000)"
fill="#000000" stroke="none">
<path d="M2380 4909 c-303 -177 -462 -269 -850 -492 -234 -134 -442 -254 -463
-267 l-37 -22 0 -1636 c0 -901 4 -1642 8 -1647 7 -11 113 -74 402 -240 262
-151 507 -293 710 -410 113 -65 236 -136 273 -157 l69 -37 366 211 c202 116
410 236 463 267 52 31 213 124 357 206 l262 150 0 1650 0 1650 -53 29 c-28 16
-270 156 -537 309 -267 154 -559 323 -650 375 -91 52 -174 101 -185 108 -11 8
-22 14 -25 14 -3 0 -52 -28 -110 -61z m-40 -938 l0 -589 -377 -218 c-208 -120
-454 -262 -546 -316 -93 -54 -173 -98 -178 -98 -5 0 -9 234 -9 568 l0 568 361
219 c199 121 448 272 553 336 105 64 192 117 194 118 1 0 2 -264 2 -588z m477
480 c98 -59 277 -168 398 -241 121 -73 288 -174 370 -225 l150 -92 3 -571 c1
-315 0 -572 -3 -572 -3 0 -90 49 -193 108 -103 59 -342 197 -532 307 -190 109
-353 205 -362 213 -17 14 -18 55 -18 599 0 320 2 583 4 583 3 0 85 -49 183
-109z m-171 -1252 c88 -50 195 -112 239 -138 87 -52 138 -81 600 -349 403
-233 388 -224 378 -232 -4 -4 -251 -148 -548 -320 -297 -172 -604 -350 -683
-396 l-143 -83 -287 166 c-158 91 -402 232 -542 313 -332 192 -488 282 -527
306 l-31 20 344 199 c190 110 405 234 477 276 105 61 558 325 563 328 1 1 73
-40 160 -90z m-860 -1290 c297 -171 542 -314 547 -318 4 -4 6 -271 5 -593 l-3
-585 -165 100 c-91 55 -291 176 -445 270 -154 93 -325 197 -380 230 -55 33
-103 65 -107 71 -11 16 -10 1136 1 1136 4 0 251 -140 547 -311z m1942 -834
c-7 -7 -71 -47 -143 -90 -71 -43 -191 -115 -265 -160 -270 -165 -646 -392
-668 -404 l-22 -12 0 588 1 588 346 200 c191 110 440 253 553 318 l205 118 3
-568 c2 -446 -1 -570 -10 -578z"/>
</g>
</svg>
